<?xml version="1.0" standalone="no"?>
<!DOCTYPE svg PUBLIC "-//W3C//DTD SVG 20010904//EN"
 "http://www.w3.org/TR/2001/REC-SVG-20010904/DTD/svg10.dtd">
<svg version="1.0" xmlns="http://www.w3.org/2000/svg"
 width="1024.000000pt" height="1024.000000pt" viewBox="0 0 1024.000000 1024.000000"
 preserveAspectRatio="xMidYMid meet">

<g transform="translate(0.000000,1024.000000) scale(0.100000,-0.100000)"
fill="#000000" stroke="none">
<path d="M3185 9096 c-107 -29 -147 -54 -315 -201 -156 -137 -591 -540 -613
-568 -43 -55 -37 -131 12 -166 54 -39 95 -36 471 24 368 59 424 63 462 29 29
-26 48 -76 48 -123 0 -36 -88 -502 -230 -1216 -89 -447 -140 -716 -140 -735 0
-14 -11 -22 -42 -30 -74 -19 -279 -91 -390 -136 -346 -140 -560 -298 -592
-437 -28 -122 130 -229 395 -268 120 -17 360 -6 544 25 83 15 157 29 166 31
14 5 17 -15 22 -167 6 -180 21 -285 63 -453 67 -268 224 -549 410 -732 l73
-72 -77 -42 c-369 -202 -698 -495 -905 -809 -209 -317 -324 -680 -368 -1159
-32 -354 20 -520 188 -603 l68 -33 2186 -3 2186 -2 18 -39 c40 -89 133 -143
245 -143 122 0 206 54 255 165 28 61 162 585 364 1422 61 253 173 717 250
1030 125 516 224 927 376 1560 29 121 81 337 116 481 l62 261 55 18 c74 26
190 104 246 166 171 191 209 472 96 703 -115 233 -373 379 -640 362 -175 -10
-305 -69 -431 -195 -134 -134 -196 -298 -186 -496 8 -172 77 -319 205 -436
l55 -50 -102 -462 c-90 -407 -259 -1142 -397 -1727 -90 -382 -312 -1258 -448
-1769 l-12 -44 -33 149 c-77 353 -219 680 -421 967 -81 115 -311 347 -445 449
-114 86 -282 192 -388 244 l-73 36 90 92 c234 240 384 515 441 807 47 242 32
559 -36 756 -10 31 -19 57 -19 58 0 1 53 5 118 9 414 24 714 126 753 256 32
105 -57 213 -259 314 -147 74 -487 179 -737 228 l-111 21 -28 71 c-79 196
-377 779 -564 1106 -300 522 -610 875 -991 1131 -186 124 -466 251 -716 324
-109 32 -255 41 -330 21z"/>
</g>
</svg>
