<?xml version="1.0" standalone="no"?>
<!DOCTYPE svg PUBLIC "-//W3C//DTD SVG 20010904//EN"
 "http://www.w3.org/TR/2001/REC-SVG-20010904/DTD/svg10.dtd">
<svg version="1.0" xmlns="http://www.w3.org/2000/svg"
 width="980.000000pt" height="980.000000pt" viewBox="0 0 980.000000 980.000000"
 preserveAspectRatio="xMidYMid meet">

<g transform="translate(0.000000,980.000000) scale(0.100000,-0.100000)"
fill="#000000" stroke="none">
<path d="M4640 9793 c-381 -26 -614 -62 -940 -143 -608 -152 -1205 -435 -1715
-815 -390 -289 -785 -690 -1063 -1078 -728 -1015 -1039 -2244 -881 -3482 118
-922 488 -1770 1094 -2507 140 -170 461 -491 633 -633 1073 -885 2423 -1273
3787 -1090 1037 140 1999 607 2750 1337 299 290 537 585 767 951 101 161 313
582 384 762 615 1567 393 3326 -591 4680 -150 206 -300 380 -500 581 -392 393
-790 682 -1275 925 -601 300 -1200 462 -1880 509 -133 9 -461 11 -570 3z m586
-413 c988 -78 1896 -458 2624 -1097 869 -764 1397 -1787 1522 -2948 17 -159
17 -711 0 -870 -98 -912 -441 -1734 -1016 -2432 -115 -139 -450 -474 -589
-589 -698 -575 -1520 -918 -2432 -1016 -183 -20 -733 -17 -917 5 -562 67
-1045 211 -1533 457 -314 158 -583 334 -852 555 -139 114 -474 449 -589 588
-575 698 -918 1520 -1016 2432 -17 159 -17 711 0 870 102 953 477 1818 1089
2515 696 792 1620 1309 2646 1480 95 15 228 33 297 39 69 6 141 13 160 15 86
8 489 5 606 -4z"/>
<path d="M4680 7950 c-459 -63 -881 -309 -1153 -673 -437 -584 -460 -1378 -57
-1980 115 -172 241 -304 439 -457 l33 -25 -100 -43 c-284 -122 -607 -350 -828
-585 -367 -388 -594 -847 -686 -1383 -17 -103 -22 -171 -22 -339 -1 -206 -1
-211 24 -254 45 -79 117 -111 207 -90 63 14 105 48 133 106 19 41 24 73 31
211 13 247 51 440 128 646 265 705 910 1283 1625 1456 211 51 491 65 707 34
713 -99 1389 -608 1725 -1299 83 -172 143 -343 172 -495 29 -146 31 -166 42
-330 11 -171 27 -234 72 -277 42 -41 76 -53 144 -53 65 0 104 18 138 62 42 56
49 111 43 316 -14 477 -161 934 -430 1337 -199 299 -484 575 -794 771 -75 47
-312 169 -392 201 -23 9 -21 12 55 69 342 256 582 652 660 1089 26 148 24 421
-5 579 -111 618 -552 1131 -1140 1326 -195 65 -290 81 -511 85 -107 2 -224 0
-260 -5z m453 -425 c263 -46 524 -188 711 -385 189 -202 307 -450 347 -729 15
-104 6 -328 -16 -431 -56 -254 -174 -471 -359 -655 -252 -251 -560 -378 -916
-378 -356 0 -662 126 -916 378 -250 249 -384 569 -384 920 0 594 401 1112 977
1260 179 46 367 53 556 20z"/>
</g>
</svg>
