<?xml version="1.0" standalone="no"?>
<!DOCTYPE svg PUBLIC "-//W3C//DTD SVG 20010904//EN"
 "http://www.w3.org/TR/2001/REC-SVG-20010904/DTD/svg10.dtd">
<svg version="1.0" xmlns="http://www.w3.org/2000/svg"
 width="512.000000pt" height="512.000000pt" viewBox="0 0 512.000000 512.000000"
 preserveAspectRatio="xMidYMid meet">

<g transform="translate(0.000000,512.000000) scale(0.100000,-0.100000)"
fill="#000000" stroke="none">
<path d="M2270 4893 c-157 -91 -478 -278 -715 -416 -512 -298 -910 -535 -1056
-629 l-106 -68 -6 -682 c-4 -376 -7 -937 -7 -1248 l0 -565 1102 -642 1101
-642 56 29 c46 23 662 373 1035 589 48 28 92 48 97 46 4 -3 11 1 16 9 4 8 107
71 228 141 325 189 622 363 691 407 l61 38 7 83 c3 45 6 613 7 1261 0 1128 0
1180 -18 1196 -20 19 -2189 1260 -2200 1260 -5 -1 -136 -75 -293 -167z m642
-209 c179 -101 256 -149 246 -155 -7 -5 -35 -16 -63 -25 -57 -19 -245 -121
-245 -133 0 -12 64 -21 160 -21 109 -1 164 -11 167 -30 2 -8 -10 -40 -25 -70
-24 -48 -32 -55 -60 -58 -60 -6 -32 -18 73 -32 107 -13 133 -11 96 10 -29 15
-27 48 8 122 16 35 32 77 36 95 13 63 23 62 167 -22 412 -241 728 -429 725
-432 -4 -4 -1058 194 -1487 279 l-115 23 2 100 c2 55 12 185 23 288 11 104 20
193 20 198 0 5 3 9 6 9 4 0 123 -66 266 -146z m-442 64 c0 -54 -25 -299 -46
-450 -8 -57 10 -50 -279 -113 -550 -121 -1184 -250 -1192 -242 -2 3 22 19 54
37 32 18 185 106 340 196 155 90 284 164 287 164 7 0 -1 -67 -15 -122 -6 -24
-19 -43 -37 -53 -27 -16 -27 -16 -2 -11 14 3 51 6 83 6 31 0 57 5 57 10 0 6
-7 10 -15 10 -19 0 -19 23 3 130 17 84 17 84 65 114 42 26 49 28 60 13 6 -8
28 -22 47 -30 l35 -14 -35 -6 c-20 -4 -52 -21 -73 -38 -32 -27 -36 -35 -33
-65 6 -46 18 -59 72 -80 65 -25 193 -5 260 39 47 31 84 79 84 109 0 25 -48 58
-84 58 -30 0 -30 1 20 30 96 55 85 127 -19 134 -26 1 -49 4 -51 7 -6 6 385
229 401 229 9 0 13 -18 13 -62z m-391 -222 c19 -20 21 -28 12 -45 -27 -50
-139 -73 -160 -33 -17 32 -1 63 43 83 55 25 78 24 105 -5z m1159 -29 c13 -16
-1 -71 -27 -105 -15 -21 -21 -21 -133 -15 -65 3 -118 9 -118 12 0 9 231 119
251 120 9 1 21 -5 27 -12z m-1177 -127 c10 -6 19 -20 19 -30 0 -11 4 -20 10
-20 5 0 -13 -20 -39 -45 -67 -62 -105 -68 -154 -25 -21 18 -37 38 -37 44 0 23
59 69 97 76 57 11 82 11 104 0z m231 -372 c-94 -168 -1145 -1984 -1151 -1990
-11 -12 -551 1619 -551 1664 0 21 -9 18 245 73 195 43 353 76 1125 235 162 33
300 62 305 64 6 3 21 5 33 5 l24 1 -30 -52z m868 -34 c718 -132 1415 -266
1423 -273 4 -4 -85 -237 -199 -517 -113 -280 -269 -664 -345 -854 -77 -190
-144 -345 -151 -345 -13 0 -30 29 -518 855 -450 763 -701 1192 -708 1209 -7
18 -10 18 498 -75z m-633 -16 c475 -798 883 -1495 1200 -2047 l26 -44 -1228 6
c-893 4 -1230 8 -1239 17 -8 8 0 32 31 93 109 212 983 1728 1109 1925 30 45
60 82 68 82 8 0 23 -15 33 -32z m2102 -1222 c1 -295 0 -308 -17 -293 -24 22
-96 36 -137 27 -19 -4 -44 -19 -55 -31 -80 -95 -129 -366 -81 -445 27 -45 87
-87 122 -87 35 0 76 34 96 82 19 45 43 183 43 250 0 46 2 52 15 41 12 -10 15
-46 15 -206 l0 -194 -25 0 c-14 0 -25 -4 -25 -10 0 -5 11 -17 25 -26 l25 -16
0 -185 c0 -166 -2 -185 -16 -179 -27 11 -462 264 -535 312 -38 25 -69 52 -69
60 0 8 12 43 26 77 15 34 123 298 241 587 118 289 242 590 276 670 l62 145 6
-135 c4 -74 7 -274 8 -444z m-3890 -48 c166 -501 271 -833 271 -859 0 -9 -230
-182 -352 -265 -121 -82 -118 -85 -118 104 1 144 2 154 15 125 17 -40 34 -43
32 -7 -2 24 9 32 128 95 133 70 161 78 184 56 12 -10 13 -8 7 8 -4 11 -12 45
-18 75 -12 60 -28 89 -28 49 0 -13 -9 -32 -20 -42 -11 -9 -20 -15 -20 -12 0 3
-61 -26 -135 -65 -74 -38 -137 -70 -140 -70 -3 0 -5 36 -5 79 0 71 2 80 20 86
11 3 20 13 20 21 0 8 -9 14 -20 14 -19 0 -20 7 -20 115 0 96 3 115 15 115 9 0
26 -24 41 -53 l25 -54 97 -37 c53 -20 101 -36 106 -36 5 0 15 -8 22 -17 13
-17 13 -17 14 1 0 10 -20 80 -44 155 -52 162 -62 212 -46 240 16 31 3 44 -21
20 -11 -11 -33 -22 -49 -26 -37 -7 -38 -18 -3 -35 21 -10 30 -28 48 -90 26
-90 39 -161 28 -155 -5 3 -33 12 -65 21 -52 15 -58 20 -87 71 -17 31 -43 65
-56 77 l-25 22 0 423 c0 233 2 423 4 423 3 0 90 -258 195 -572z m3787 -349 c2
-5 11 -45 19 -89 20 -115 -2 -218 -51 -237 -23 -8 -92 26 -121 61 -22 26 -25
37 -20 81 9 82 42 146 90 176 40 24 71 27 83 8z m-1078 -636 c225 -5 282 -9
278 -19 -5 -13 -706 -912 -989 -1267 -82 -103 -153 -187 -157 -185 -16 6 -716
818 -1205 1397 l-79 94 934 -6 c514 -4 1062 -10 1218 -14z m-2242 -125 c133
-151 886 -1031 924 -1078 l33 -41 -34 14 c-36 15 -363 195 -611 338 -92 52
-142 87 -134 91 7 4 37 12 67 17 30 5 74 15 99 21 25 6 68 10 97 8 l51 -4 -41
48 c-43 50 -57 58 -57 34 0 -15 -20 -25 -60 -32 -26 -4 -91 -19 -150 -34 -80
-21 -98 -20 -134 1 -20 12 -36 22 -36 24 0 2 18 1 39 -2 22 -3 70 0 106 7 80
15 150 68 141 106 -4 13 -1 24 6 26 19 7 -26 70 -88 123 -76 65 -177 99 -294
98 -53 -1 -99 -7 -121 -17 -68 -29 -114 -109 -89 -156 11 -21 10 -21 -32 3
-213 124 -261 153 -262 161 -2 16 454 345 480 346 6 0 51 -46 100 -102z m2852
18 c254 -148 467 -277 469 -284 2 -4 -135 -87 -305 -185 l-307 -177 -6 62
c-14 145 -88 232 -196 232 -30 0 -57 -4 -61 -10 -4 -5 -19 -15 -34 -21 -34
-15 -117 -138 -124 -184 -4 -27 1 -44 25 -81 77 -121 177 -96 263 68 l34 65
23 -49 c14 -29 21 -62 19 -83 -3 -34 -6 -36 -406 -264 -497 -285 -526 -300
-516 -284 18 32 459 606 783 1019 198 253 195 250 204 250 5 0 66 -33 135 -74z
m-2686 -344 c45 -20 78 -60 78 -96 0 -21 -78 -85 -119 -96 -71 -20 -180 -12
-254 17 -38 15 -75 36 -82 48 -28 43 -18 105 17 105 11 0 32 8 46 19 43 29 52
31 162 27 79 -2 117 -9 152 -24z m2366 -98 c18 -13 22 -22 17 -50 -3 -19 -7
-49 -10 -67 -7 -46 -56 -97 -93 -97 -22 0 -40 11 -71 45 -55 60 -54 86 4 142
39 37 51 43 88 43 23 0 53 -7 65 -16z"/>
<path d="M1124 3656 c-100 -44 -176 -131 -211 -243 -9 -29 -21 -53 -27 -54 -6
0 -27 -1 -46 -2 -24 -2 -36 -7 -38 -19 -3 -14 4 -18 30 -18 46 -1 95 -20 147
-58 34 -25 47 -29 58 -21 11 9 7 19 -22 50 -31 34 -35 46 -35 92 0 37 8 68 28
107 25 51 31 56 82 71 66 21 81 14 124 -55 l29 -46 -17 -64 c-11 -38 -15 -74
-11 -88 9 -28 116 -224 162 -295 18 -29 33 -64 33 -79 0 -56 28 -11 95 157 85
210 124 284 153 285 33 2 52 12 52 29 0 10 -10 15 -28 15 -23 0 -80 30 -138
75 -24 18 -27 -4 -5 -40 11 -20 21 -47 21 -61 0 -27 -103 -246 -124 -263 -10
-9 -26 9 -72 86 l-59 97 5 71 c9 148 7 179 -20 218 -41 61 -102 80 -166 53z"/>
<path d="M3755 3750 c23 -25 14 -45 -32 -70 -21 -11 -60 -34 -88 -50 -27 -17
-82 -46 -122 -65 -40 -19 -75 -40 -79 -46 -9 -16 -145 -79 -169 -79 -11 0 -31
7 -43 16 -18 12 -22 13 -22 1 0 -8 9 -22 19 -31 11 -10 34 -49 52 -87 32 -68
57 -86 51 -38 -4 34 31 63 158 128 58 29 124 67 147 82 23 16 46 29 52 29 5 0
30 14 55 30 67 45 115 63 131 50 16 -13 35 -5 35 14 0 21 -122 136 -144 136
-18 0 -18 -1 -1 -20z"/>
<path d="M3560 3380 c0 -26 44 -90 104 -154 59 -62 106 -134 106 -163 0 -12
-74 -63 -91 -63 -6 0 -24 -9 -39 -20 -52 -37 -72 -40 -104 -13 -41 34 -56 15
-23 -29 14 -18 38 -57 52 -87 30 -60 61 -95 75 -86 6 4 7 17 4 31 -4 14 0 33
9 47 15 24 129 97 150 97 6 0 48 24 92 54 73 49 228 126 253 126 6 0 24 -8 41
-17 39 -23 51 -10 23 25 -12 15 -41 59 -65 99 -40 70 -44 73 -87 78 -25 4 -79
18 -121 31 -119 39 -379 68 -379 44z m255 -84 c124 -21 245 -50 268 -63 8 -5
-108 -76 -198 -120 l-49 -25 -23 28 c-13 16 -33 48 -45 72 -13 23 -28 42 -34
42 -5 0 -24 20 -42 45 -17 25 -28 45 -24 45 4 0 70 -11 147 -24z"/>
<path d="M1980 3061 c0 -5 7 -26 16 -47 13 -30 15 -56 9 -115 -8 -94 5 -108
37 -42 33 68 64 87 152 91 l73 4 36 -45 c43 -51 45 -74 15 -127 -25 -42 -45
-55 -105 -66 -21 -4 -46 -11 -56 -16 -17 -9 -217 -301 -217 -317 0 -4 -12 -13
-27 -20 -18 -8 -23 -15 -15 -23 7 -7 47 -7 136 1 135 12 297 14 332 5 12 -3
27 -17 34 -30 8 -13 22 -24 32 -24 15 0 17 5 11 28 -10 34 -10 75 0 130 9 55
-8 56 -45 2 l-28 -40 -104 0 c-57 0 -124 3 -148 6 l-46 6 50 82 c63 102 83
123 122 132 17 3 36 10 41 13 6 4 32 16 58 25 38 14 55 29 78 64 50 80 35 135
-58 203 -69 51 -146 71 -248 62 l-70 -6 -17 37 c-16 32 -48 51 -48 27z"/>
<path d="M2742 3001 c-110 -41 -205 -113 -249 -189 -24 -41 -27 -55 -28 -147
0 -93 2 -105 26 -141 14 -21 37 -57 52 -80 18 -30 34 -43 57 -48 23 -4 31 -10
27 -21 -14 -35 129 -48 271 -26 83 14 83 14 151 80 38 36 76 82 86 101 24 47
45 168 34 198 -5 13 -9 35 -9 48 0 33 -44 96 -112 160 -71 67 -82 72 -174 79
-64 5 -89 2 -132 -14z m165 -58 c69 -33 99 -66 94 -104 -1 -16 7 -50 19 -76
26 -57 27 -96 1 -185 -24 -85 -69 -150 -126 -184 -43 -24 -47 -25 -101 -13
-79 18 -114 45 -150 116 -53 107 -59 134 -45 216 18 107 51 164 125 214 74 50
104 53 183 16z"/>
<path d="M4345 2580 c-4 -6 -2 -17 4 -24 9 -11 0 -43 -35 -137 -25 -68 -54
-147 -64 -175 -26 -74 -57 -131 -75 -137 -22 -9 -19 -27 5 -27 12 0 35 -7 51
-16 l31 -16 -7 30 c-5 23 9 68 58 193 36 90 71 182 78 203 8 21 24 45 37 54
28 18 28 32 2 32 -12 0 -34 7 -50 15 -19 10 -31 11 -35 5z"/>
<path d="M2470 1506 c-56 -12 -70 -19 -102 -56 -84 -94 -116 -211 -81 -291 24
-53 67 -97 102 -105 55 -12 58 -15 31 -32 -14 -9 -44 -35 -66 -58 -38 -38 -42
-47 -46 -105 -4 -49 -1 -72 13 -100 31 -63 68 -85 163 -99 96 -15 133 -6 219
51 63 41 78 68 84 153 l5 72 -44 39 c-23 22 -54 47 -67 56 l-25 16 46 11 c54
14 97 58 123 126 14 37 16 52 6 72 -6 14 -11 36 -11 50 0 57 -70 158 -132 190
-40 21 -142 26 -218 10z m153 -89 c34 -38 87 -139 87 -164 0 -25 -56 -120 -78
-132 -9 -5 -37 -10 -62 -12 -91 -5 -98 -2 -131 49 -16 26 -28 55 -25 65 2 9
-3 24 -11 33 -13 13 -14 17 -1 32 8 9 30 44 48 77 18 33 42 68 54 78 31 26 84
14 119 -26z m4 -451 c26 -22 28 -31 31 -109 l4 -84 -55 -32 c-64 -37 -76 -38
-111 -10 -75 59 -82 155 -16 221 47 47 102 52 147 14z"/>
<path d="M3788 1395 c-53 -58 -56 -65 -30 -59 22 5 41 -10 79 -66 17 -25 61
-81 98 -125 36 -44 69 -93 72 -108 8 -38 23 -30 55 29 30 54 38 93 12 59 -15
-19 -16 -19 -60 30 -25 28 -59 70 -76 95 -18 25 -37 49 -45 53 -26 16 -65 97
-59 122 4 14 5 25 4 24 -2 0 -24 -24 -50 -54z"/>
</g>
</svg>
