<?xml version="1.0" standalone="no"?>
<!DOCTYPE svg PUBLIC "-//W3C//DTD SVG 20010904//EN"
 "http://www.w3.org/TR/2001/REC-SVG-20010904/DTD/svg10.dtd">
<svg version="1.0" xmlns="http://www.w3.org/2000/svg"
 width="1024.000000pt" height="1024.000000pt" viewBox="0 0 1024.000000 1024.000000"
 preserveAspectRatio="xMidYMid meet">

<g transform="translate(0.000000,1024.000000) scale(0.100000,-0.100000)"
fill="#000000" stroke="none">
<path d="M1007 8205 c-21 -7 -48 -21 -59 -32 -51 -45 -48 87 -48 -2470 0
-1699 3 -2399 11 -2427 20 -72 -97 -6 1484 -838 l490 -258 2234 0 2234 0 616
327 c339 179 738 391 886 469 404 214 427 227 449 257 l21 28 3 2407 c2 1668
0 2418 -8 2444 -5 20 -26 50 -45 67 -30 26 -44 31 -87 31 -46 0 -81 -15 -372
-164 -177 -90 -532 -270 -791 -401 -258 -131 -530 -269 -603 -306 l-133 -69
-2170 0 -2171 0 -656 334 c-846 430 -1191 602 -1222 609 -14 3 -42 0 -63 -8z
m1781 -3397 c1 -1212 0 -2208 -2 -2215 -3 -7 -79 28 -203 94 -190 101 -878
462 -1220 640 l-163 85 0 2199 0 2200 793 -400 792 -400 3 -2203z m6242 797
l0 -2195 -102 -51 c-57 -28 -211 -109 -343 -179 -132 -70 -382 -202 -555 -293
-173 -91 -373 -197 -445 -235 l-130 -70 -5 387 c-9 619 -10 3973 -2 4010 7 34
15 38 687 378 374 189 723 366 775 393 52 27 101 49 108 49 9 1 12 -444 12
-2194z m-1885 -885 l0 -2235 -2027 -3 -2028 -2 0 2240 0 2240 2027 -2 2027 -3
1 -2235z"/>
<path d="M4379 6450 c-46 -24 -143 -128 -234 -251 -197 -264 -268 -443 -268
-674 0 -114 22 -231 65 -339 10 -27 17 -50 15 -53 -2 -2 -55 15 -118 38 -168
60 -187 64 -231 46 -56 -24 -80 -69 -73 -136 14 -112 104 -362 179 -494 83
-144 160 -241 323 -402 156 -155 164 -164 225 -280 198 -373 378 -693 412
-732 42 -47 268 -222 362 -278 66 -40 92 -42 151 -15 98 44 374 265 418 334
46 73 273 479 389 696 57 108 70 124 211 265 255 254 358 418 461 733 57 170
62 215 34 260 -25 40 -81 66 -124 58 -17 -4 -85 -26 -151 -51 -66 -25 -125
-45 -132 -45 -8 0 -6 13 7 43 54 122 82 306 68 448 -8 87 -51 225 -98 318 -95
189 -323 472 -416 516 -71 34 -152 -6 -176 -87 -12 -41 -11 -45 36 -171 90
-236 33 -527 -139 -713 l-50 -54 -95 38 c-52 22 -139 54 -192 72 -121 41 -136
39 -340 -36 -84 -31 -162 -57 -172 -58 -28 -2 -117 112 -165 209 -90 184 -96
395 -16 585 42 99 27 168 -44 208 -47 27 -75 27 -122 2z m-139 -735 c27 -97
93 -241 149 -324 56 -82 156 -188 210 -223 66 -42 101 -38 316 37 102 36 195
65 205 65 10 0 100 -29 199 -65 259 -93 277 -91 419 48 131 128 221 282 264
450 13 48 26 87 30 87 11 0 46 -105 59 -176 20 -115 -5 -267 -64 -394 -12 -25
-45 -84 -73 -133 -63 -107 -72 -142 -46 -200 47 -104 121 -115 342 -48 52 16
97 27 99 25 7 -7 -77 -171 -125 -245 -28 -43 -121 -148 -224 -254 l-175 -180
-163 -295 c-314 -570 -283 -523 -402 -617 -58 -46 -115 -86 -127 -89 -18 -5
-45 12 -128 77 -59 45 -114 94 -124 108 -10 14 -64 109 -120 211 -57 102 -155
280 -219 395 l-116 210 -167 165 c-105 105 -185 194 -219 245 -58 87 -145 253
-136 262 3 3 56 -9 118 -27 134 -40 215 -44 255 -13 43 31 65 68 70 114 4 37
-1 54 -31 109 -179 323 -206 486 -119 718 9 23 17 41 18 40 2 -2 13 -39 25
-83z"/>
<path d="M4459 4687 c-43 -28 -65 -87 -55 -142 7 -34 30 -62 149 -183 184
-186 207 -204 265 -209 116 -10 199 107 147 207 -14 27 -296 274 -372 326 -45
30 -90 31 -134 1z"/>
<path d="M5665 4696 c-51 -23 -371 -303 -389 -340 -40 -85 9 -185 100 -202 76
-14 95 -2 270 163 91 86 172 166 181 179 8 14 17 43 20 67 10 101 -89 174
-182 133z"/>
</g>
</svg>
