<?xml version="1.0" encoding="UTF-8"?>
<svg version="1.1" xmlns="http://www.w3.org/2000/svg" width="1024" height="1024">
<path d="M0 0 C6.78097348 -0.05064156 13.56189833 -0.08570883 20.34301758 -0.10986328 C22.6506533 -0.11993107 24.95827625 -0.13358623 27.26586914 -0.15087891 C30.57962191 -0.17509287 33.89320626 -0.18647526 37.20703125 -0.1953125 C38.2414888 -0.20563507 39.27594635 -0.21595764 40.3417511 -0.22659302 C41.3025206 -0.22674408 42.2632901 -0.22689514 43.25317383 -0.22705078 C44.09922684 -0.231492 44.94527985 -0.23593323 45.81697083 -0.24050903 C48 0 48 0 51 2 C52.82634458 2.53363182 54.65470461 3.06183868 56.49487305 3.5456543 C80.19587145 9.80803813 101.94995858 23.87758431 115 45 C126.77456509 66.10377242 127.14903173 89.11764578 120.93359375 112.07421875 C115.01290485 132.62603379 105.00667399 152.06477959 92 169 C90.74813426 170.76951487 89.49818435 172.54038642 88.25 174.3125 C81.36961702 183.77133026 73.64770076 193.10427322 65 201 C64.34 201 63.68 201 63 201 C63.04567108 201.63114212 63.09134216 202.26228424 63.13839722 202.91255188 C65.52167046 235.92238115 67.86343995 268.91959086 69 302 C69.04382813 303.2570575 69.08765625 304.51411499 69.1328125 305.80926514 C72.24846118 395.8040582 73.64607328 486.56902272 33 685 C32.34257813 685.78890625 31.68515625 686.5778125 31.0078125 687.390625 C-14.53047198 741.15871992 -111.96957301 743.78871331 -176.22834778 749.18197632 C-184.32210176 749.8383151 -192.42258263 750.37220179 -200.52850342 750.85284424 C-203.02855309 751.00170008 -205.52817043 751.15678958 -208.02783203 751.31201172 C-278.309967 755.58432161 -349.90260043 754.27307095 -420 748 C-420.80427429 747.92952454 -421.60854858 747.85904907 -422.43719482 747.78643799 C-541.25916204 737.37400626 -541.25916204 737.37400626 -577 706 C-578.36898437 704.95779297 -578.36898437 704.95779297 -579.765625 703.89453125 C-580.50296875 703.26933594 -581.2403125 702.64414062 -582 702 C-582 701.34 -582 700.68 -582 700 C-582.66 700 -583.32 700 -584 700 C-606.19442748 675.53662548 -611.16112355 643.85544024 -613 612 C-613.0400415 611.32085541 -613.08008301 610.64171082 -613.12133789 609.94198608 C-614.10119385 592.91187563 -614.38042245 575.86568921 -614.625 558.8125 C-614.63604893 558.0569067 -614.64709785 557.3013134 -614.6584816 556.52282333 C-614.99008502 533.61399748 -615.04799089 510.72104622 -614.6875 487.8125 C-614.67734863 487.14828915 -614.66719727 486.48407829 -614.65673828 485.79973984 C-614.41354449 470.02592359 -614.00241578 454.26395549 -613.39909554 438.49973869 C-613.30937275 436.13382296 -613.2226668 433.767817 -613.1370697 431.40174866 C-613.08073072 429.84945636 -613.02438009 428.29716449 -612.96801758 426.74487305 C-612.9267413 425.60356037 -612.9267413 425.60356037 -612.88463116 424.43919086 C-612.71942004 419.94672677 -612.52871731 415.45623496 -612.31841755 410.96566677 C-612.22374645 408.86690432 -612.14047043 406.76805609 -612.06214905 404.66862488 C-611.96588632 402.106112 -611.85051077 399.54422079 -611.71287537 396.9835968 C-611.26800432 390.58860074 -611.26800432 390.58860074 -614.36938477 385.34863281 C-615.23748779 384.90358398 -616.10559082 384.45853516 -617 384 C-637.93697845 361.82259015 -641.7571792 335.17094574 -641.25390625 305.78125 C-639.9914123 264.21411254 -634.722649 222.07298975 -615.01025391 184.90527344 C-614.04905785 183.09251993 -613.10795008 181.26915686 -612.16796875 179.4453125 C-593.50408258 144.7894228 -559.40244066 119.74556917 -522.07128906 108.46264648 C-495.82660496 100.91765626 -469.82737147 99.70667852 -442.64159822 99.69407773 C-439.05101635 99.68951554 -435.46050452 99.67146202 -431.8699646 99.65428162 C-421.24884263 99.60570564 -410.62768086 99.57424073 -400.00646973 99.55297852 C-391.7119102 99.53636297 -383.41748712 99.5133538 -375.12301862 99.46995777 C-370.88405455 99.44846447 -366.64535169 99.44009603 -362.40633702 99.44235051 C-359.13232688 99.44026405 -355.85842664 99.41884895 -352.58447266 99.40063477 C-351.44226257 99.40521194 -350.30005249 99.40978912 -349.12322998 99.414505 C-342.95602976 99.36045674 -337.17000156 98.74837089 -331.13493347 97.4992218 C-323.15998998 95.86052419 -315.39511955 95.57378255 -307.2565918 95.61181641 C-305.75798158 95.60773628 -304.25937438 95.60238643 -302.76077271 95.59588623 C-298.7419005 95.58237422 -294.72326299 95.58744446 -290.70438743 95.59702349 C-286.46257202 95.60470906 -282.22077447 95.59754974 -277.97895813 95.59286499 C-270.85711118 95.58743122 -263.73535804 95.59453426 -256.61352539 95.60888672 C-248.43034853 95.62518974 -240.24739627 95.61993215 -232.0642249 95.6034075 C-224.98848537 95.58970169 -217.91281264 95.58791753 -210.83706409 95.59572351 C-206.6330704 95.60035293 -202.4291815 95.60115823 -198.22519493 95.59111404 C-181.60929416 95.55676657 -165.3328866 95.52343503 -149 99 C-143.42359508 100.18245786 -143.42359508 100.18245786 -138 99 C-134.26337438 95.23197417 -131.32082505 91.10941719 -128.29785156 86.76513672 C-125.89632247 83.49894873 -122.95993728 80.80724469 -120.046875 78.0078125 C-118.08319392 76.08160625 -116.28670965 74.08995853 -114.5 72 C-108.23725232 64.72479888 -101.30063513 58.21438146 -94 52 C-93.08992187 51.20078125 -92.17984375 50.4015625 -91.2421875 49.578125 C-66.35666167 27.87628264 -33.7962107 5.33742376 0 2 C0 1.34 0 0.68 0 0 Z M-65 70 C-66.08442705 70.898689 -67.16907635 71.79710985 -68.25390625 72.6953125 C-73.55110489 77.10574211 -78.74095223 81.54427615 -83.51953125 86.5234375 C-84.98002084 87.98007355 -86.50049095 89.23149167 -88.125 90.5 C-90.48654523 92.55351759 -91.93581251 94.14319109 -93.6796875 96.65625 C-94.11780762 97.28337891 -94.55592773 97.91050781 -95.00732422 98.55664062 C-95.33490723 99.03294922 -95.66249023 99.50925781 -96 100 C-94.53113342 100.00879936 -94.53113342 100.00879936 -93.03259277 100.01777649 C-83.7368191 100.07536011 -74.4412714 100.14830232 -65.14572906 100.23571491 C-60.36849197 100.28016038 -55.59133512 100.31947092 -50.81396484 100.34643555 C-46.19073281 100.37272931 -41.567814 100.41330867 -36.94477844 100.46318626 C-35.19407594 100.47968087 -33.44331949 100.49130212 -31.69255066 100.49761391 C-8.08307649 100.59121613 13.86685819 104.87396952 31.625 121.60546875 C43.24102862 133.31702392 49.53005041 147.64206462 55 163 C75.17722879 143.39315224 91.82999624 112.87130807 93.03515625 84.4765625 C92.91576755 72.67034684 88.5522933 62.93044902 81 54 C80.52175781 53.41476563 80.04351563 52.82953125 79.55078125 52.2265625 C66.98210651 38.2332269 46.05992095 32.91025385 28.078125 31.74609375 C-6.31237937 30.41030439 -39.37593892 48.4426235 -65 70 Z M-357.0625 151.125 C-394.16085551 193.65665797 -401.2376563 255.05771533 -401.11352539 309.36157227 C-401.11324244 311.12760415 -401.11340336 312.89363615 -401.1139679 314.65966797 C-401.11425166 319.39612412 -401.10842377 324.1325543 -401.10139394 328.86900449 C-401.09508957 333.84039756 -401.09455105 338.81179141 -401.09336853 343.78318787 C-401.09027591 353.17140031 -401.08209076 362.55960094 -401.07201904 371.94780821 C-401.0607932 382.64690899 -401.05533123 393.34601037 -401.05032361 404.04511559 C-401.03990614 426.03008362 -401.02234728 448.01504106 -401 470 C-397.04 470 -393.08 470 -389 470 C-389.02320313 468.46730469 -389.04640625 466.93460938 -389.0703125 465.35546875 C-389.08908862 463.29948409 -389.10728682 461.24349409 -389.125 459.1875 C-389.14175781 458.18267578 -389.15851563 457.17785156 -389.17578125 456.14257812 C-389.25938929 443.14152773 -387.57514128 433.72805155 -378.3125 424.25 C-377.23264665 423.46539769 -376.12529811 422.71790542 -375 422 C-374.32324219 421.53464844 -373.64648438 421.06929687 -372.94921875 420.58984375 C-362.41876024 414.56044247 -347.07774113 415.37518252 -335.5625 418.25 C-334.02321299 418.78273569 -332.49802416 419.36036306 -331 420 C-330.35417969 420.26683594 -329.70835937 420.53367187 -329.04296875 420.80859375 C-322.74527741 423.89569735 -318.46062262 429.37087929 -315.125 435.375 C-312.57394992 443.59505027 -312.91959201 451.94562255 -313.0625 460.484375 C-313.0783226 464.43557707 -313.0783226 464.43557707 -312 470 C-307.71 470 -303.42 470 -299 470 C-298.97687192 454.51887168 -298.95901609 439.03774587 -298.94818783 423.55660439 C-298.94302692 416.36878497 -298.93598811 409.18097647 -298.92456055 401.99316406 C-298.91460747 395.72980885 -298.90814508 389.46646155 -298.90591151 383.20309865 C-298.90460546 379.88531279 -298.90100581 376.56755488 -298.89426994 373.24977493 C-298.88705474 369.55012904 -298.88600927 365.85053065 -298.88647461 362.15087891 C-298.8810817 360.49255791 -298.8810817 360.49255791 -298.87557983 358.80073547 C-298.87764183 357.29468498 -298.87764183 357.29468498 -298.87974548 355.75820923 C-298.87882369 354.88250589 -298.8779019 354.00680256 -298.87695217 353.10456276 C-298.86461955 350.94222282 -298.86461955 350.94222282 -300 349 C-300.06639323 347.55868423 -300.06855817 346.11414279 -300.03759766 344.67163086 C-300.02067871 343.77057617 -300.00375977 342.86952148 -299.98632812 341.94116211 C-299.96248047 340.95897705 -299.93863281 339.97679199 -299.9140625 338.96484375 C-299.8828833 337.43851318 -299.8828833 337.43851318 -299.85107422 335.88134766 C-299.78152826 332.56657578 -299.70388766 329.25206188 -299.625 325.9375 C-299.57336937 323.66935302 -299.52177431 321.40120524 -299.47021484 319.13305664 C-299.34403489 313.68584578 -299.20921973 308.23889206 -299.0703125 302.79199219 C-299.01011743 300.40174637 -298.95315283 298.0114697 -298.8984375 295.62109375 C-297.55373886 239.44936428 -282.84199195 182.21058948 -244 140 C-243.40574219 139.43539062 -242.81148437 138.87078125 -242.19921875 138.2890625 C-240.77295613 137.04938418 -240.77295613 137.04938418 -241 135 C-240.01 134.67 -239.02 134.34 -238 134 C-238 133.34 -238 132.68 -238 132 C-236.68 131.34 -235.36 130.68 -234 130 C-237.65121363 127.67007472 -241.13984482 127.7164984 -245.33203125 127.74121094 C-246.06436478 127.7377063 -246.7966983 127.73420166 -247.55122375 127.73059082 C-249.97174581 127.72179255 -252.39197496 127.72762074 -254.8125 127.734375 C-256.5043951 127.73302664 -258.19628982 127.73108469 -259.88818359 127.72857666 C-263.43900227 127.72562701 -266.98972037 127.72991364 -270.54052734 127.73925781 C-275.06143837 127.75058259 -279.58211008 127.74413649 -284.10301208 127.73211288 C-287.60176339 127.7248302 -291.10045953 127.72721256 -294.59921265 127.73236847 C-296.26394683 127.73369096 -297.92868623 127.73210707 -299.59341431 127.72740936 C-323.76288564 127.67422691 -339.96627809 133.20454344 -357.0625 151.125 Z M-213 154 C-213.73863281 154.60457031 -214.47726562 155.20914063 -215.23828125 155.83203125 C-243.27615216 179.60853318 -257.26491355 217.39596481 -264.1875 252.4375 C-264.42001465 253.59668945 -264.42001465 253.59668945 -264.65722656 254.77929688 C-267.97734992 272.58788885 -268.27620189 290.29841784 -268.1953125 308.35546875 C-268.19157275 310.83937973 -268.18873034 313.32329221 -268.18673706 315.8072052 C-268.1791763 322.27937034 -268.15959457 328.75144275 -268.1373291 335.22357178 C-268.11670596 341.85411491 -268.10770047 348.48466752 -268.09765625 355.11523438 C-268.07634004 368.076862 -268.0426936 381.03842602 -268 394 C-265.35409986 394.02684679 -262.70846904 394.04676357 -260.0625 394.0625 C-259.30775391 394.07087891 -258.55300781 394.07925781 -257.77539062 394.08789062 C-255.85005687 394.09652441 -253.92464419 394.05224333 -252 394 C-251.67 393.67 -251.34 393.34 -251 393 C-249.4035017 392.9852356 -247.80654135 393.02268904 -246.2109375 393.078125 C-236.93866245 393.14934484 -227.81165742 391.88230541 -218.625 390.75 C-217.2240358 390.58010056 -217.2240358 390.58010056 -215.79476929 390.4067688 C-165.94125874 384.94421715 -165.94125874 384.94421715 -126 357 C-115.99694169 342.81683156 -115.79114172 328.1265289 -115.9777832 311.46679688 C-116.53958684 250.06448894 -104.5418618 185.4783226 -65.21484375 136.609375 C-63.89958721 135.20304659 -63.89958721 135.20304659 -64 134 C-73.164789 133.86724811 -82.32960683 133.736745 -91.49446487 133.60884857 C-95.75348694 133.54934849 -100.01249682 133.48917116 -104.27148438 133.42724609 C-114.77225361 133.27498399 -125.2730658 133.13901439 -135.77432251 133.02502441 C-137.92794776 133.00081012 -140.08152312 132.97388095 -142.23510742 132.94628906 C-146.0472906 132.89863829 -149.85947949 132.86976258 -153.671875 132.84375 C-155.3003537 132.82145325 -155.3003537 132.82145325 -156.96173096 132.79870605 C-178.34637868 132.71880432 -196.71260124 140.32333182 -213 154 Z M-559 165 C-559.63421875 165.51304687 -560.2684375 166.02609375 -560.921875 166.5546875 C-591.50812541 191.59210487 -603.83583966 233.99854552 -607.70751953 271.75537109 C-613.21974328 317.81751767 -613.21974328 317.81751767 -597.23046875 359.4609375 C-575.64940291 384.02782506 -535.0710321 385.58995564 -504.8125 389.3125 C-503.2539328 389.50608597 -503.2539328 389.50608597 -501.66387939 389.70358276 C-491.27735429 390.98095411 -480.89931674 392.13040616 -470.44921875 392.73046875 C-469.69324905 392.77633621 -468.93727936 392.82220367 -468.15840149 392.86946106 C-463.62109595 393.08820571 -459.47706866 392.77860465 -455 392 C-455 392.66 -455 393.32 -455 394 C-452.47932687 394.16945702 -449.95850616 394.33563484 -447.4375 394.5 C-446.73302734 394.54769531 -446.02855469 394.59539062 -445.30273438 394.64453125 C-444.25375977 394.71220703 -444.25375977 394.71220703 -443.18359375 394.78125 C-442.54993896 394.82314453 -441.91628418 394.86503906 -441.26342773 394.90820312 C-438.17490357 395.03346308 -435.09064253 395.01304757 -432 395 C-432.00222061 394.42881439 -432.00444122 393.85762878 -432.00672913 393.26913452 C-432.12321213 361.63126282 -431.98061612 330.00906639 -431.5 298.375 C-431.48206327 297.19390278 -431.48206327 297.19390278 -431.46376419 295.98894501 C-431.31636158 286.32584379 -431.16180441 276.66287119 -431 267 C-430.67 267 -430.34 267 -430 267 C-429.91024902 266.16678223 -429.82049805 265.33356445 -429.72802734 264.47509766 C-425.00389938 221.56966151 -415.4849583 177.40384058 -389.2421875 142.0390625 C-387.31235556 139.42336695 -385.64618751 136.79644996 -384 134 C-396.15412295 133.92996161 -408.30819655 133.87691882 -420.4624815 133.84456348 C-426.10844323 133.82902121 -431.75426517 133.80799653 -437.40014648 133.77368164 C-442.86614636 133.74067445 -448.33201326 133.72306144 -453.79810524 133.71536827 C-455.86571148 133.70989793 -457.93331187 133.69922033 -460.00086021 133.68280983 C-495.92763984 133.40944019 -531.13901414 141.04756971 -559 165 Z M-32 149 C-33.5159375 150.11375 -33.5159375 150.11375 -35.0625 151.25 C-39.66773585 155.21778795 -43.29492428 160.21590223 -47 165 C-47.61101563 165.78375 -48.22203125 166.5675 -48.8515625 167.375 C-57.71469857 179.30163219 -57.71469857 179.30163219 -62 193 C-50.76865267 191.68219587 -39.62252207 190.03764094 -28.46875 188.1796875 C-26.85498457 187.91323158 -25.24117341 187.64705254 -23.62731934 187.38113403 C-19.43820268 186.69013884 -15.24970599 185.99545746 -11.06134033 185.29992676 C-6.76392796 184.58698538 -2.46592179 183.87764208 1.83203125 183.16796875 C10.22192948 181.78210712 18.61117429 180.39233901 27 179 C26.5345974 177.08011714 26.06524733 175.1611909 25.59423828 173.24267578 C25.2028215 171.63962082 25.2028215 171.63962082 24.80349731 170.00418091 C21.84078855 158.92696515 15.34145541 148.28415697 5.96484375 141.53515625 C-7.39105782 134.07390706 -20.96440681 140.1674831 -32 149 Z M15.55395508 212.43701172 C14.62155502 212.58985626 13.68915497 212.74270081 12.72850037 212.900177 C9.65799207 213.40499853 6.58873523 213.91699992 3.51953125 214.4296875 C1.38298537 214.78383471 -0.75359658 215.1377643 -2.89021301 215.4914856 C-7.36185643 216.23303279 -11.83285435 216.9783377 -16.3034668 217.72607422 C-22.0389222 218.6848874 -27.77614925 219.63260147 -33.51394176 220.57731438 C-37.9233297 221.3048579 -42.33157986 222.03911416 -46.73952675 222.7753334 C-48.85509798 223.12767153 -50.97105464 223.47770328 -53.08739281 223.82540512 C-56.04018515 224.31138825 -58.99128805 224.80658123 -61.94213867 225.30419922 C-63.25832687 225.51783112 -63.25832687 225.51783112 -64.60110474 225.73577881 C-65.40431656 225.8731546 -66.20752838 226.0105304 -67.03507996 226.15206909 C-67.73245868 226.26821501 -68.4298374 226.38436092 -69.14834881 226.50402641 C-71.3146332 226.97825996 -71.3146332 226.97825996 -74 229 C-73.67 229.33 -73.34 229.66 -73 230 C-73.66 230.33 -74.32 230.66 -75 231 C-76.30012043 249.42352834 -76.14380579 267.86594701 -76.13072467 286.32341039 C-76.12844011 291.1012844 -76.13196525 295.87915491 -76.13470459 300.6570282 C-76.13912895 309.99127764 -76.13820069 319.325519 -76.13529195 328.65976875 C-76.13302462 336.2530287 -76.13273114 343.8462864 -76.13381577 351.43954659 C-76.133969 352.52426593 -76.13412223 353.60898528 -76.13428011 354.72657492 C-76.13459987 356.93084188 -76.13492408 359.13510884 -76.1352527 361.3393758 C-76.13809776 381.96286328 -76.13483584 402.58634629 -76.12945233 423.20983303 C-76.12498582 440.86637204 -76.12576087 458.52290447 -76.13037109 476.17944336 C-76.13573518 496.73248467 -76.1378225 517.28552207 -76.13475883 537.83856398 C-76.13444031 540.03458854 -76.13412594 542.23061309 -76.13381577 544.42663765 C-76.13366149 545.50684239 -76.13350721 546.58704712 -76.13334826 547.69998534 C-76.13248856 555.27458467 -76.13393418 562.8491815 -76.13629532 570.42378044 C-76.13911395 579.66840103 -76.13831183 588.91301313 -76.13301457 598.15763276 C-76.13040515 602.8650725 -76.12932512 607.57249815 -76.13266373 612.27993774 C-76.19688067 634.87123904 -76.19688067 634.87123904 -75.61691284 657.4521637 C-75.58655603 658.24953255 -75.55619921 659.0469014 -75.52492249 659.86843294 C-75.28170556 664.50143604 -74.36706174 668.57847508 -73 673 C-72.896875 674.093125 -72.79375 675.18625 -72.6875 676.3125 C-71.17170701 684.44266239 -66.51995854 692.77819875 -60 698 C-58.68 698 -57.36 698 -56 698 C-56 697.34 -56 696.68 -56 696 C-55.00419922 696.309375 -55.00419922 696.309375 -53.98828125 696.625 C-50.06715816 697.11706251 -46.89177967 696.15267722 -43.1875 695 C-42.44483887 694.7743335 -41.70217773 694.54866699 -40.93701172 694.31616211 C-33.01517038 691.82330427 -25.47675406 688.59701417 -18 685 C-16.99066406 684.51660156 -15.98132813 684.03320312 -14.94140625 683.53515625 C-6.90182517 679.41843459 1.01314486 673.83368004 7 667 C7 666.34 7 665.68 7 665 C7.66 665 8.32 665 9 665 C25.50450524 645.20053059 30.3004665 621.99821181 33 597 C33.12616699 595.83339844 33.25233398 594.66679688 33.38232422 593.46484375 C35.00645918 578.06266403 36.24043855 562.6494083 37.125 547.1875 C37.16352081 546.52037994 37.20204163 545.85325989 37.24172974 545.16592407 C38.60870478 521.08802345 39.19967529 496.98621537 39.5625 472.875 C39.58352723 471.50962275 39.60458475 470.14424596 39.62567139 468.77886963 C40.67344603 400.38587957 39.50012869 331.97681027 35.4375 263.6875 C35.37346985 262.59894714 35.3094397 261.51039429 35.24346924 260.38885498 C35.06234425 257.34610631 34.87460127 254.3038614 34.68359375 251.26171875 C34.60242058 249.91132256 34.60242058 249.91132256 34.51960754 248.53364563 C34.46600571 247.71131943 34.41240387 246.88899323 34.35717773 246.04174805 C34.31213608 245.32907272 34.26709442 244.6163974 34.22068787 243.88212585 C34.03849823 241.77616884 34.03849823 241.77616884 33 239 C32.95433701 237.04219911 32.96170252 235.08295882 33 233.125 C33.57055522 221.76880644 33.57055522 221.76880644 31 211 C25.70045984 210.80247159 20.75707387 211.56242882 15.55395508 212.43701172 Z M-112.0625 387.875 C-136.46351808 410.10859241 -170.42503393 414.27229137 -201.70799255 419.31132507 C-202.43857376 419.42901749 -203.16915497 419.5467099 -203.921875 419.66796875 C-204.63340225 419.78255936 -205.3449295 419.89714996 -206.07801819 420.01521301 C-211.41316152 420.88325057 -216.71476448 421.86803248 -222 423 C-222.75392467 434.95757467 -223.12124785 446.90748025 -223.28125 458.88671875 C-223.29079712 459.59988377 -223.30034424 460.31304878 -223.31018066 461.04782486 C-223.37853588 466.26099165 -223.43966652 471.47423529 -223.5 476.6875 C-223.61182388 486.24097831 -223.73157415 495.79415324 -223.89230347 505.34695244 C-223.95555224 509.11473048 -224.01199794 512.88238553 -224.05517578 516.65045166 C-224.09972445 520.46519304 -224.16399357 524.27915835 -224.24171448 528.09336281 C-224.26773439 529.52558672 -224.287149 530.9579484 -224.29942322 532.39035606 C-224.42483365 546.10399457 -224.42483365 546.10399457 -229 552 C-232.23574463 554.47520636 -235.76614149 554.39014371 -239.75 554.625 C-240.99265625 554.69976563 -242.2353125 554.77453125 -243.515625 554.8515625 C-246.18674468 554.96535459 -248.82819865 555.03106746 -251.5 555 C-254.80902027 555 -257.75324826 555.41631429 -261 556 C-261.06731323 557.01815796 -261.06731323 557.01815796 -261.13598633 558.05688477 C-263.16895726 587.96915325 -267.63873014 615.46595773 -290.875 636.75 C-305.61365174 648.94951768 -323.84087107 656.14101371 -343 657 C-343.71285156 657.03996094 -344.42570313 657.07992188 -345.16015625 657.12109375 C-369.3127396 657.80655939 -392.52030849 650.71147861 -411 635 C-412.20076172 634.10474609 -412.20076172 634.10474609 -413.42578125 633.19140625 C-416.40980791 630.65113469 -418.72157287 627.80270597 -421.0625 624.6875 C-421.48337891 624.14416016 -421.90425781 623.60082031 -422.33789062 623.04101562 C-427.49949093 616.26291414 -431.03341324 609.1199439 -433.9375 601.125 C-434.20240234 600.42375 -434.46730469 599.7225 -434.74023438 599 C-438.52928087 588.50725586 -439.31117631 577.82536101 -439.625 566.75 C-439.66367187 565.61175781 -439.70234375 564.47351563 -439.7421875 563.30078125 C-439.83518848 560.53400221 -439.92102861 557.76720883 -440 555 C-440.71542969 555.01047363 -441.43085938 555.02094727 -442.16796875 555.03173828 C-445.44527601 555.07360556 -448.72252674 555.09942329 -452 555.125 C-453.12535156 555.14175781 -454.25070312 555.15851563 -455.41015625 555.17578125 C-470.03689401 555.26131773 -470.03689401 555.26131773 -475.375 551.1875 C-479.05985624 546.2271166 -479.28584822 541.54546327 -479.24291992 535.52880859 C-479.24481827 534.68743347 -479.24671661 533.84605835 -479.24867249 532.97918701 C-479.25237158 530.20217515 -479.24168254 527.42542608 -479.23046875 524.6484375 C-479.22927561 522.70895417 -479.22882407 520.76947025 -479.2290802 518.82998657 C-479.22751645 514.76308578 -479.2192393 510.69627314 -479.20581055 506.62939453 C-479.18888901 501.44147535 -479.18499447 496.25365361 -479.18575573 491.06571007 C-479.18548231 487.05745531 -479.17997263 483.04922143 -479.17275429 479.04097366 C-479.16959236 477.12979922 -479.16760606 475.21862244 -479.16686058 473.30744553 C-479.1527111 455.98049055 -479.1527111 455.98049055 -478.22114563 447.44546509 C-477.81079745 442.90776682 -477.89555941 438.36466712 -477.9375 433.8125 C-477.94201172 432.86052734 -477.94652344 431.90855469 -477.95117188 430.92773438 C-477.96277647 428.61841902 -477.97909748 426.30924663 -478 424 C-478.8739315 423.8884407 -478.8739315 423.8884407 -479.76551819 423.77462769 C-549.06717139 414.90550225 -549.06717139 414.90550225 -580 406 C-581.17543507 408.35087014 -581.18560172 409.86643867 -581.28125 412.4921875 C-581.31806885 413.47630615 -581.3548877 414.4604248 -581.39282227 415.47436523 C-581.42819092 416.59657471 -581.46355957 417.71878418 -581.5 418.875 C-581.53988037 420.10871338 -581.57976074 421.34242676 -581.62084961 422.61352539 C-581.73444565 426.2626835 -581.83610541 429.91210331 -581.93426514 433.56170654 C-581.97854534 435.2041856 -582.02368794 436.84664161 -582.06964111 438.48907471 C-582.91069993 468.64006363 -583.10556691 498.78699819 -583.12293625 528.94786453 C-583.12496828 531.70693519 -583.12871657 534.4659989 -583.13284302 537.22506714 C-583.22253992 580.19016122 -583.22253992 580.19016122 -580.6875 623.0625 C-580.58099931 624.42770471 -580.47488338 625.7929395 -580.36914062 627.15820312 C-579.33525641 639.47454299 -576.96123576 651.52017501 -571.0625 662.5 C-570.74087891 663.13679688 -570.41925781 663.77359375 -570.08789062 664.4296875 C-567.76350337 668.92258595 -565.11850296 673.01324827 -562 677 C-561.34 677 -560.68 677 -560 677 C-560 677.66 -560 678.32 -560 679 C-554.76400177 684.36186357 -548.45271641 688.05026769 -541.8125 691.375 C-540.81573242 691.87507568 -540.81573242 691.87507568 -539.79882812 692.38525391 C-535.61621557 694.40698843 -531.4962783 695.78103275 -527 697 C-525.53142887 697.60054971 -524.07197298 698.22413111 -522.625 698.875 C-517.90695134 700.80874568 -513.13698649 702.07678057 -508.1875 703.25 C-507.45805176 703.42515137 -506.72860352 703.60030273 -505.97705078 703.78076172 C-503.0709927 704.44490802 -500.3521021 705.00208653 -497.36328125 704.984375 C-495 705 -495 705 -492.27075195 705.92919922 C-488.92915324 707.02319429 -485.77971716 707.62623756 -482.3046875 708.1484375 C-481.6573465 708.24574158 -481.01000549 708.34304565 -480.3430481 708.44329834 C-478.18819041 708.76253886 -476.03197671 709.07041709 -473.875 709.375 C-473.11525879 709.48293884 -472.35551758 709.59087769 -471.57275391 709.7020874 C-383.48931434 722.08512822 -292.1178427 723.17043856 -149 714 C-149 713.34 -149 712.68 -149 712 C-148.34 712.33 -147.68 712.66 -147 713 C-136.39341845 713.07845105 -125.80040057 711.4073156 -115.3125 710 C-114.64448364 709.91046051 -113.97646729 709.82092102 -113.28820801 709.72866821 C-104.60882079 708.57657334 -104.60882079 708.57657334 -96 707 C-94.83881234 704.17804395 -94.94345555 703.13976833 -96.109375 700.2578125 C-96.65078125 699.22398437 -97.1921875 698.19015625 -97.75 697.125 C-101.09420438 690.2348527 -102.75729815 683.52773349 -104 676 C-104.16474351 675.04042767 -104.32948702 674.08085533 -104.49922276 673.09220505 C-105.28580209 667.50608283 -105.36925254 661.86705494 -105.55540466 656.23565674 C-105.61863612 654.37880402 -105.61863612 654.37880402 -105.68314499 652.48443913 C-106.08706156 639.73159472 -106.13395424 626.98752769 -106.11352539 614.22949219 C-106.11324227 611.69337465 -106.11340369 609.15725702 -106.1139679 606.62113953 C-106.11419287 601.22882206 -106.11142655 595.83652044 -106.10573006 590.44420624 C-106.09750002 582.64843742 -106.09498826 574.85267441 -106.09374207 567.05690172 C-106.0915693 554.39974752 -106.08495813 541.74259987 -106.07543945 529.08544922 C-106.06621887 516.81168652 -106.05916095 504.53792563 -106.05493164 492.26416016 C-106.05453756 491.12370775 -106.05453756 491.12370775 -106.05413551 489.9602159 C-106.05283019 486.14488736 -106.05156655 482.32955881 -106.05032361 478.51423025 C-106.04000645 447.00948207 -106.02236149 415.50474204 -106 384 C-109.02480014 384 -109.94012529 385.77082747 -112.0625 387.875 Z M-447 425 C-447.97122782 458.02174581 -448 490.94327369 -448 524 C-384.64 524 -321.28 524 -256 524 C-254.13157356 518.43721962 -254.13157356 518.43721962 -253.68115234 512.98071289 C-253.66128769 512.02462631 -253.64142303 511.06853973 -253.62095642 510.08348083 C-253.60940018 509.05690872 -253.59784393 508.03033661 -253.5859375 506.97265625 C-253.5568203 505.34379234 -253.5568203 505.34379234 -253.52711487 503.68202209 C-253.46676045 500.14226131 -253.42048518 496.60248054 -253.375 493.0625 C-253.33714396 490.62938711 -253.29881098 488.19628159 -253.26000977 485.76318359 C-252.95365374 465.50888982 -252.88195774 445.25605126 -253 425 C-254.37488287 424.97250234 -255.74993391 424.9533836 -257.125 424.9375 C-257.89070312 424.92589844 -258.65640625 424.91429687 -259.4453125 424.90234375 C-262.35961862 425.01374689 -265.12917058 425.50080042 -268 426 C-268.00586624 426.77594513 -268.01173248 427.55189026 -268.01777649 428.35134888 C-268.07577718 435.67833449 -268.14789562 443.00498291 -268.23571491 450.33166695 C-268.2803658 454.09804249 -268.3196332 457.86431118 -268.34643555 461.63085938 C-268.37252177 465.2685524 -268.41296081 468.90583311 -268.46318626 472.54327011 C-268.47981923 473.92821991 -268.49135572 475.31324098 -268.49761391 476.69827652 C-268.50729302 478.64418174 -268.53708156 480.589955 -268.56762695 482.53564453 C-268.58428154 484.19444138 -268.58428154 484.19444138 -268.60127258 485.88674927 C-269.06382563 489.49834841 -270.11862984 491.89492062 -272 495 C-276.26912049 498.29078038 -279.72126894 500.08938118 -285.10424805 500.20532227 C-286.3351844 500.2352401 -286.3351844 500.2352401 -287.59098816 500.26576233 C-288.47232925 500.28247482 -289.35367035 500.29918732 -290.26171875 500.31640625 C-291.16751175 500.33718735 -292.07330475 500.35796844 -293.00654602 500.37937927 C-295.90012016 500.44476558 -298.79378507 500.50370904 -301.6875 500.5625 C-303.64909793 500.6056956 -305.61068668 500.64931023 -307.57226562 500.69335938 C-312.38141739 500.80043582 -317.19066046 500.90173414 -322 501 C-322.495 502.485 -322.495 502.485 -323 504 C-324.7578125 505.0234375 -324.7578125 505.0234375 -327 506 C-327.73992187 506.42539062 -328.47984375 506.85078125 -329.2421875 507.2890625 C-340.03017127 512.76308394 -352.87398208 512.58621288 -364.58203125 510.30078125 C-367.96811085 509.17840242 -370.88441417 508.18646067 -373.37573242 505.53686523 C-380.48212169 498.63366226 -390.3290231 500.21748289 -399.5625 500.3125 C-402.21881914 500.32384663 -404.87443819 500.32637492 -407.53074646 500.3120575 C-409.17582412 500.30474173 -410.82106644 500.31262973 -412.46595764 500.3384552 C-418.69015228 500.33492418 -423.13997933 499.00974426 -428.3125 495.375 C-433.2674132 488.40141846 -432.26412479 478.58120373 -432.1953125 470.43359375 C-432.1924826 469.15895767 -432.18965271 467.88432159 -432.18673706 466.57106018 C-432.1774899 463.2123946 -432.15957871 459.8540104 -432.1373291 456.49542236 C-432.11672468 453.05621752 -432.10770441 449.61698339 -432.09765625 446.17773438 C-432.07568355 439.4517364 -432.04119907 432.72590657 -432 426 C-436.95 425.67 -441.9 425.34 -447 425 Z M-359 448 C-360.66134997 452.98404992 -360.22649351 458.15655935 -360.25 463.375 C-360.270625 464.51195312 -360.29125 465.64890625 -360.3125 466.8203125 C-360.31765625 467.91859375 -360.3228125 469.016875 -360.328125 470.1484375 C-360.3374707 471.15052246 -360.34681641 472.15260742 -360.35644531 473.18505859 C-359.94043195 476.47042442 -358.94212844 478.34095074 -357 481 C-353.5262853 482.73685735 -349.7978206 482.4460074 -346 482 C-343.27517874 480.85998345 -343.27517874 480.85998345 -342 478 C-341.26518419 474.33859021 -341.11111301 470.72691544 -341 467 C-340.9484375 465.89011719 -340.896875 464.78023437 -340.84375 463.63671875 C-340.66891788 457.32090838 -340.71052825 452.48245292 -344 447 C-349.1898411 443.54010594 -354.1668684 444.16192491 -359 448 Z M-409 556 C-409.75649664 575.33269182 -407.76997932 591.95669096 -394.75 607.25 C-385.7762758 616.71975921 -373.193281 624.58977504 -359.76171875 625.08203125 C-357.84102694 625.0649736 -355.92047203 625.03369249 -354 625 C-353.67 625.33 -353.34 625.66 -353 626 C-347.3952291 626.21326403 -347.3952291 626.21326403 -342 625 C-340.31400752 624.87376096 -338.62607213 624.77253601 -336.9375 624.6875 C-326.68145988 623.7833491 -318.98054434 619.29261195 -311 613 C-310.37222656 612.52304687 -309.74445313 612.04609375 -309.09765625 611.5546875 C-298.19503398 602.1106927 -294.46135896 587.06521226 -293.16552734 573.31738281 C-292.75268928 567.5376499 -292.76636809 561.78887957 -293 556 C-304.68446714 554.61859196 -316.41457018 554.85470917 -328.16015625 554.8671875 C-330.40026358 554.86651299 -332.64037083 554.86554174 -334.88047791 554.86428833 C-339.55110376 554.86282102 -344.22171038 554.86493653 -348.89233398 554.86962891 C-354.88459057 554.87535549 -360.87680266 554.87202266 -366.86905766 554.86605644 C-371.48345783 554.86245004 -376.09784736 554.86358927 -380.71224785 554.86618423 C-382.92310021 554.86685174 -385.13395353 554.86603121 -387.34480476 554.86370468 C-390.42268583 554.86117367 -393.50049356 554.8650238 -396.57836914 554.87060547 C-397.49315536 554.86858124 -398.40794159 554.86655701 -399.35044861 554.86447144 C-400.60536606 554.86870117 -400.60536606 554.86870117 -401.88563538 554.87301636 C-402.61209291 554.87339338 -403.33855043 554.87377041 -404.08702183 554.87415886 C-406.22278745 554.93355511 -406.22278745 554.93355511 -409 556 Z " fill="#000000" transform="translate(768,128)"/>
<path d="M0 0 C3.79529487 2.97469058 6.76204464 6.16113393 8.3125 10.8125 C8.87634129 16.50512838 8.61969906 20.96194138 5.3125 25.8125 C1.16688914 29.86598618 -2.66494766 32.74788069 -8.6328125 32.84375 C-13.57881761 32.46762794 -16.82917826 31.05699783 -20.6875 27.8125 C-24.28433721 23.53518008 -25.9503904 19.41732327 -25.6875 13.8125 C-24.5219639 8.23236701 -22.19160515 4.39531091 -17.6875 0.8125 C-11.37539572 -2.76038922 -6.65338533 -2.93986794 0 0 Z " fill="#000000" transform="translate(437.6875,325.1875)"/>
<path d="M0 0 C5.00347644 2.45625207 8.74034105 5.76087699 10.79296875 11.0390625 C12.19133068 15.9714664 12.16331329 19.51507436 10.05859375 24.2109375 C7.59663926 28.37173143 3.76427983 32.28750152 -1.015625 33.51953125 C-6.53082499 34.2426781 -10.03426365 33.86484789 -15 31 C-19.23009998 27.42791557 -21.57423679 24.47160769 -22.25390625 18.9296875 C-22.56211435 13.06379142 -21.44560335 9.74934516 -18 5 C-12.18610473 -0.26019096 -7.7022261 -0.78438512 0 0 Z " fill="#000000" transform="translate(420,477)"/>
<path d="M0 0 C4.40010079 3.46390913 7.17870686 7.41879298 8.875 12.75 C9.08008918 18.08231878 7.94676552 22.84192275 4.30859375 26.875 C-0.92395456 31.41934258 -4.29342874 32.3590479 -11.23828125 32.27734375 C-16.47084042 31.75186751 -19.0068907 29.15415406 -22.3125 25.3125 C-25.13805329 19.76604353 -25.6677559 15.22585299 -23.875 9.25 C-18.31630778 -0.38506651 -10.46711694 -3.92739023 0 0 Z " fill="#000000" transform="translate(427,400)"/>
<path d="M0 0 C2.31 0 4.62 0 7 0 C7 0.33 7 0.66 7 1 C4.69 1 2.38 1 0 1 C0 0.67 0 0.34 0 0 Z " fill="#060505" transform="translate(568,879)"/>
<path d="M0 0 C1 4 1 4 1 4 Z " fill="#080808" transform="translate(800,705)"/>
<path d="M0 0 C1 4 1 4 1 4 Z " fill="#09090A" transform="translate(152,697)"/>
<path d="M0 0 C1 4 1 4 1 4 Z " fill="#060606" transform="translate(512,631)"/>
<path d="M0 0 C4 1 4 1 4 1 Z " fill="#090809" transform="translate(358,630)"/>
<path d="M0 0 C1 4 1 4 1 4 Z " fill="#050406" transform="translate(288,553)"/>
<path d="M0 0 C3 1 3 1 3 1 Z " fill="#080908" transform="translate(736,816)"/>
<path d="" fill="#0A0C0B" transform="translate(0,0)"/>
<path d="" fill="#0B0B0B" transform="translate(0,0)"/>
<path d="" fill="#090909" transform="translate(0,0)"/>
<path d="" fill="#0A0A09" transform="translate(0,0)"/>
<path d="M0 0 C3 1 3 1 3 1 Z " fill="#090909" transform="translate(456,630)"/>
<path d="" fill="#0A0B0B" transform="translate(0,0)"/>
<path d="" fill="#080707" transform="translate(0,0)"/>
<path d="" fill="#08090B" transform="translate(0,0)"/>
<path d="" fill="#070607" transform="translate(0,0)"/>
<path d="" fill="#050306" transform="translate(0,0)"/>
<path d="M0 0 C0.66 0 1.32 0 2 0 C1.67 0.66 1.34 1.32 1 2 C0.67 1.34 0.34 0.68 0 0 Z " fill="#090808" transform="translate(512,554)"/>
<path d="M0 0 C3 1 3 1 3 1 Z " fill="#040505" transform="translate(505,520)"/>
<path d="M0 0 C3 1 3 1 3 1 Z " fill="#050605" transform="translate(317,520)"/>
<path d="" fill="#0F0F0E" transform="translate(0,0)"/>
<path d="M0 0 C3 1 3 1 3 1 Z " fill="#070606" transform="translate(791,305)"/>
<path d="M0 0 C3 1 3 1 3 1 Z " fill="#070707" transform="translate(304,263)"/>
<path d="M0 0 C3 1 3 1 3 1 Z " fill="#070606" transform="translate(300,263)"/>
<path d="M0 0 C2 1 2 1 2 1 Z " fill="#070505" transform="translate(587,878)"/>
<path d="M0 0 C2 1 2 1 2 1 Z " fill="#050606" transform="translate(360,878)"/>
<path d="M0 0 C2 1 2 1 2 1 Z " fill="#060606" transform="translate(342,876)"/>
<path d="M0 0 C2 1 2 1 2 1 Z " fill="#080806" transform="translate(622,875)"/>
<path d="M0 0 C2 1 2 1 2 1 Z " fill="#09090A" transform="translate(267,866)"/>
<path d="M0 0 C2 1 2 1 2 1 Z " fill="#070806" transform="translate(701,863)"/>
<path d="M0 0 C2 1 2 1 2 1 Z " fill="#050605" transform="translate(616,840)"/>
<path d="M0 0 C2 1 2 1 2 1 Z " fill="#060606" transform="translate(336,840)"/>
<path d="" fill="#050506" transform="translate(0,0)"/>
<path d="" fill="#070707" transform="translate(0,0)"/>
<path d="M0 0 C2 1 2 1 2 1 Z " fill="#060405" transform="translate(448,744)"/>
<path d="" fill="#090909" transform="translate(0,0)"/>
<path d="" fill="#090A0B" transform="translate(0,0)"/>
<path d="" fill="#0A0909" transform="translate(0,0)"/>
<path d="" fill="#0A0A0A" transform="translate(0,0)"/>
<path d="M0 0 C2 1 2 1 2 1 Z " fill="#0C0A0A" transform="translate(470,650)"/>
<path d="" fill="#090A0B" transform="translate(0,0)"/>
<path d="M0 0 C2 1 2 1 2 1 Z " fill="#090908" transform="translate(478,630)"/>
<path d="M0 0 C2 1 2 1 2 1 Z " fill="#090808" transform="translate(470,630)"/>
<path d="M0 0 C2 1 2 1 2 1 Z " fill="#060605" transform="translate(419,608)"/>
<path d="" fill="#080909" transform="translate(0,0)"/>
<path d="" fill="#0B0B0B" transform="translate(0,0)"/>
<path d="" fill="#060707" transform="translate(0,0)"/>
<path d="M0 0 C2 1 2 1 2 1 Z " fill="#090908" transform="translate(241,547)"/>
<path d="" fill="#070706" transform="translate(0,0)"/>
<path d="" fill="#0A0A0B" transform="translate(0,0)"/>
<path d="" fill="#0B0B0C" transform="translate(0,0)"/>
<path d="" fill="#09090A" transform="translate(0,0)"/>
<path d="" fill="#090807" transform="translate(0,0)"/>
<path d="" fill="#0A0A0A" transform="translate(0,0)"/>
<path d="" fill="#070606" transform="translate(0,0)"/>
<path d="M0 0 C2 1 2 1 2 1 Z " fill="#070506" transform="translate(728,351)"/>
<path d="M0 0 C2 1 2 1 2 1 Z " fill="#080707" transform="translate(597,263)"/>
<path d="M0 0 C2 1 2 1 2 1 Z " fill="#070705" transform="translate(309,263)"/>
<path d="M0 0 C2 1 2 1 2 1 Z " fill="#070607" transform="translate(296,263)"/>
<path d="M0 0 C2 1 2 1 2 1 Z " fill="#080808" transform="translate(256,232)"/>
<path d="M0 0 C2 1 2 1 2 1 Z " fill="#080507" transform="translate(696,160)"/>
<path d="" fill="#282928" transform="translate(0,0)"/>
<path d="" fill="#0D0D0C" transform="translate(0,0)"/>
<path d="" fill="#090909" transform="translate(0,0)"/>
<path d="" fill="#060706" transform="translate(0,0)"/>
<path d="" fill="#060708" transform="translate(0,0)"/>
<path d="" fill="#070807" transform="translate(0,0)"/>
<path d="" fill="#080808" transform="translate(0,0)"/>
<path d="" fill="#080807" transform="translate(0,0)"/>
<path d="" fill="#050606" transform="translate(0,0)"/>
<path d="" fill="#070608" transform="translate(0,0)"/>
<path d="" fill="#0A0809" transform="translate(0,0)"/>
<path d="" fill="#090806" transform="translate(0,0)"/>
<path d="" fill="#070707" transform="translate(0,0)"/>
<path d="" fill="#090807" transform="translate(0,0)"/>
<path d="" fill="#080606" transform="translate(0,0)"/>
<path d="" fill="#0C0A08" transform="translate(0,0)"/>
<path d="" fill="#090A08" transform="translate(0,0)"/>
<path d="" fill="#0B0A0C" transform="translate(0,0)"/>
<path d="" fill="#060205" transform="translate(0,0)"/>
<path d="" fill="#060706" transform="translate(0,0)"/>
<path d="" fill="#080807" transform="translate(0,0)"/>
<path d="" fill="#080607" transform="translate(0,0)"/>
<path d="" fill="#050705" transform="translate(0,0)"/>
<path d="" fill="#080609" transform="translate(0,0)"/>
<path d="" fill="#070705" transform="translate(0,0)"/>
<path d="" fill="#080807" transform="translate(0,0)"/>
<path d="" fill="#060406" transform="translate(0,0)"/>
<path d="" fill="#050505" transform="translate(0,0)"/>
<path d="" fill="#080508" transform="translate(0,0)"/>
<path d="" fill="#050706" transform="translate(0,0)"/>
<path d="" fill="#090804" transform="translate(0,0)"/>
<path d="" fill="#0B0B0A" transform="translate(0,0)"/>
<path d="" fill="#0B0A09" transform="translate(0,0)"/>
<path d="" fill="#0A0A0A" transform="translate(0,0)"/>
<path d="" fill="#0A0907" transform="translate(0,0)"/>
<path d="" fill="#090607" transform="translate(0,0)"/>
<path d="" fill="#080808" transform="translate(0,0)"/>
<path d="" fill="#070708" transform="translate(0,0)"/>
<path d="" fill="#0C0D0E" transform="translate(0,0)"/>
<path d="" fill="#0B0B0D" transform="translate(0,0)"/>
<path d="" fill="#0A070A" transform="translate(0,0)"/>
<path d="" fill="#060706" transform="translate(0,0)"/>
<path d="" fill="#080506" transform="translate(0,0)"/>
<path d="" fill="#080606" transform="translate(0,0)"/>
<path d="" fill="#070707" transform="translate(0,0)"/>
<path d="" fill="#060606" transform="translate(0,0)"/>
<path d="" fill="#060606" transform="translate(0,0)"/>
<path d="" fill="#0A0C0B" transform="translate(0,0)"/>
<path d="" fill="#080908" transform="translate(0,0)"/>
<path d="" fill="#0B0709" transform="translate(0,0)"/>
<path d="" fill="#090908" transform="translate(0,0)"/>
<path d="" fill="#080806" transform="translate(0,0)"/>
<path d="" fill="#0B0A0A" transform="translate(0,0)"/>
<path d="" fill="#090909" transform="translate(0,0)"/>
<path d="" fill="#0B0B08" transform="translate(0,0)"/>
<path d="" fill="#0A0A0A" transform="translate(0,0)"/>
<path d="" fill="#080A0A" transform="translate(0,0)"/>
<path d="" fill="#040504" transform="translate(0,0)"/>
<path d="" fill="#090A08" transform="translate(0,0)"/>
<path d="" fill="#080606" transform="translate(0,0)"/>
<path d="" fill="#080908" transform="translate(0,0)"/>
<path d="" fill="#080807" transform="translate(0,0)"/>
<path d="" fill="#080707" transform="translate(0,0)"/>
<path d="" fill="#0A0B0A" transform="translate(0,0)"/>
<path d="" fill="#0A0A0A" transform="translate(0,0)"/>
<path d="" fill="#0A0809" transform="translate(0,0)"/>
<path d="" fill="#0B0C0B" transform="translate(0,0)"/>
<path d="" fill="#090907" transform="translate(0,0)"/>
<path d="" fill="#0C0B09" transform="translate(0,0)"/>
<path d="" fill="#0B0A0A" transform="translate(0,0)"/>
<path d="" fill="#080809" transform="translate(0,0)"/>
<path d="" fill="#0B0C0C" transform="translate(0,0)"/>
<path d="" fill="#0A0A0A" transform="translate(0,0)"/>
<path d="" fill="#080806" transform="translate(0,0)"/>
<path d="" fill="#0B0A0B" transform="translate(0,0)"/>
<path d="" fill="#0B0A0B" transform="translate(0,0)"/>
<path d="" fill="#0A0A0A" transform="translate(0,0)"/>
<path d="" fill="#0A090A" transform="translate(0,0)"/>
<path d="" fill="#0A0909" transform="translate(0,0)"/>
<path d="" fill="#090A08" transform="translate(0,0)"/>
<path d="" fill="#080A09" transform="translate(0,0)"/>
<path d="" fill="#070808" transform="translate(0,0)"/>
<path d="" fill="#090908" transform="translate(0,0)"/>
<path d="" fill="#090909" transform="translate(0,0)"/>
<path d="" fill="#070707" transform="translate(0,0)"/>
<path d="" fill="#080707" transform="translate(0,0)"/>
<path d="" fill="#080909" transform="translate(0,0)"/>
<path d="" fill="#0A0A0A" transform="translate(0,0)"/>
<path d="" fill="#0A0908" transform="translate(0,0)"/>
<path d="" fill="#090A09" transform="translate(0,0)"/>
<path d="" fill="#0B0B09" transform="translate(0,0)"/>
<path d="" fill="#070808" transform="translate(0,0)"/>
<path d="" fill="#070908" transform="translate(0,0)"/>
<path d="" fill="#060606" transform="translate(0,0)"/>
<path d="" fill="#0A0C0C" transform="translate(0,0)"/>
<path d="" fill="#09070B" transform="translate(0,0)"/>
<path d="" fill="#0A0C0C" transform="translate(0,0)"/>
<path d="" fill="#0A0907" transform="translate(0,0)"/>
<path d="" fill="#060606" transform="translate(0,0)"/>
<path d="" fill="#050706" transform="translate(0,0)"/>
<path d="" fill="#050706" transform="translate(0,0)"/>
<path d="" fill="#090706" transform="translate(0,0)"/>
<path d="" fill="#090807" transform="translate(0,0)"/>
<path d="" fill="#090A08" transform="translate(0,0)"/>
<path d="" fill="#050506" transform="translate(0,0)"/>
<path d="" fill="#070607" transform="translate(0,0)"/>
<path d="" fill="#090607" transform="translate(0,0)"/>
<path d="" fill="#070707" transform="translate(0,0)"/>
<path d="" fill="#060405" transform="translate(0,0)"/>
<path d="" fill="#060506" transform="translate(0,0)"/>
<path d="" fill="#060805" transform="translate(0,0)"/>
<path d="" fill="#090A09" transform="translate(0,0)"/>
<path d="" fill="#040606" transform="translate(0,0)"/>
<path d="" fill="#0B0E0D" transform="translate(0,0)"/>
<path d="" fill="#070706" transform="translate(0,0)"/>
<path d="" fill="#060808" transform="translate(0,0)"/>
<path d="" fill="#080908" transform="translate(0,0)"/>
<path d="" fill="#090A0A" transform="translate(0,0)"/>
<path d="" fill="#090909" transform="translate(0,0)"/>
<path d="" fill="#0A0A09" transform="translate(0,0)"/>
<path d="" fill="#080506" transform="translate(0,0)"/>
<path d="" fill="#090809" transform="translate(0,0)"/>
<path d="" fill="#090907" transform="translate(0,0)"/>
<path d="" fill="#09090A" transform="translate(0,0)"/>
<path d="" fill="#0D090A" transform="translate(0,0)"/>
<path d="" fill="#0A0908" transform="translate(0,0)"/>
<path d="" fill="#09090C" transform="translate(0,0)"/>
<path d="" fill="#090909" transform="translate(0,0)"/>
<path d="" fill="#080807" transform="translate(0,0)"/>
<path d="" fill="#0C0B0B" transform="translate(0,0)"/>
<path d="" fill="#080808" transform="translate(0,0)"/>
<path d="" fill="#070707" transform="translate(0,0)"/>
<path d="" fill="#080705" transform="translate(0,0)"/>
<path d="" fill="#070506" transform="translate(0,0)"/>
<path d="" fill="#060605" transform="translate(0,0)"/>
<path d="" fill="#10110E" transform="translate(0,0)"/>
<path d="" fill="#080707" transform="translate(0,0)"/>
<path d="" fill="#10110E" transform="translate(0,0)"/>
<path d="" fill="#0B0C0E" transform="translate(0,0)"/>
<path d="" fill="#0D1010" transform="translate(0,0)"/>
<path d="" fill="#090704" transform="translate(0,0)"/>
<path d="" fill="#0C0C0B" transform="translate(0,0)"/>
<path d="" fill="#0B0B0E" transform="translate(0,0)"/>
<path d="" fill="#0C0B0C" transform="translate(0,0)"/>
<path d="" fill="#0B0C0D" transform="translate(0,0)"/>
<path d="" fill="#080808" transform="translate(0,0)"/>
<path d="" fill="#0D0A0A" transform="translate(0,0)"/>
<path d="" fill="#0C0C0C" transform="translate(0,0)"/>
<path d="" fill="#070606" transform="translate(0,0)"/>
<path d="" fill="#0B0B0D" transform="translate(0,0)"/>
<path d="" fill="#0B0B0E" transform="translate(0,0)"/>
<path d="" fill="#0C0D0C" transform="translate(0,0)"/>
<path d="" fill="#0B0A0A" transform="translate(0,0)"/>
<path d="" fill="#090908" transform="translate(0,0)"/>
<path d="" fill="#0A0A08" transform="translate(0,0)"/>
<path d="" fill="#080B0B" transform="translate(0,0)"/>
<path d="" fill="#08070A" transform="translate(0,0)"/>
<path d="" fill="#080808" transform="translate(0,0)"/>
<path d="" fill="#080A09" transform="translate(0,0)"/>
<path d="" fill="#0A0C09" transform="translate(0,0)"/>
<path d="" fill="#0C0B0A" transform="translate(0,0)"/>
<path d="" fill="#0A0A09" transform="translate(0,0)"/>
<path d="" fill="#060606" transform="translate(0,0)"/>
<path d="" fill="#0A0A08" transform="translate(0,0)"/>
<path d="" fill="#050306" transform="translate(0,0)"/>
<path d="" fill="#060708" transform="translate(0,0)"/>
<path d="" fill="#080907" transform="translate(0,0)"/>
<path d="" fill="#0F0E0E" transform="translate(0,0)"/>
<path d="" fill="#090A08" transform="translate(0,0)"/>
<path d="" fill="#0A0808" transform="translate(0,0)"/>
<path d="" fill="#0A0807" transform="translate(0,0)"/>
<path d="" fill="#09080A" transform="translate(0,0)"/>
<path d="" fill="#090706" transform="translate(0,0)"/>
<path d="" fill="#090A06" transform="translate(0,0)"/>
<path d="" fill="#0A0B09" transform="translate(0,0)"/>
<path d="" fill="#080606" transform="translate(0,0)"/>
<path d="" fill="#080809" transform="translate(0,0)"/>
<path d="" fill="#050506" transform="translate(0,0)"/>
<path d="" fill="#101010" transform="translate(0,0)"/>
<path d="" fill="#0B0B0A" transform="translate(0,0)"/>
<path d="" fill="#080608" transform="translate(0,0)"/>
<path d="" fill="#080707" transform="translate(0,0)"/>
<path d="" fill="#050505" transform="translate(0,0)"/>
<path d="" fill="#0B0B0C" transform="translate(0,0)"/>
<path d="" fill="#070709" transform="translate(0,0)"/>
<path d="" fill="#070806" transform="translate(0,0)"/>
<path d="" fill="#0D0D0C" transform="translate(0,0)"/>
<path d="" fill="#0A0708" transform="translate(0,0)"/>
<path d="" fill="#070606" transform="translate(0,0)"/>
<path d="" fill="#0A0808" transform="translate(0,0)"/>
<path d="" fill="#090807" transform="translate(0,0)"/>
<path d="" fill="#090807" transform="translate(0,0)"/>
<path d="" fill="#080807" transform="translate(0,0)"/>
<path d="" fill="#090608" transform="translate(0,0)"/>
<path d="" fill="#070706" transform="translate(0,0)"/>
<path d="" fill="#090807" transform="translate(0,0)"/>
<path d="" fill="#040503" transform="translate(0,0)"/>
<path d="" fill="#060604" transform="translate(0,0)"/>
<path d="" fill="#040505" transform="translate(0,0)"/>
<path d="" fill="#060505" transform="translate(0,0)"/>
<path d="" fill="#060606" transform="translate(0,0)"/>
<path d="" fill="#060607" transform="translate(0,0)"/>
<path d="" fill="#060607" transform="translate(0,0)"/>
<path d="" fill="#050505" transform="translate(0,0)"/>
<path d="" fill="#050705" transform="translate(0,0)"/>
<path d="" fill="#060403" transform="translate(0,0)"/>
<path d="" fill="#050607" transform="translate(0,0)"/>
<path d="" fill="#070605" transform="translate(0,0)"/>
<path d="" fill="#060806" transform="translate(0,0)"/>
<path d="" fill="#0C0C0A" transform="translate(0,0)"/>
<path d="" fill="#070809" transform="translate(0,0)"/>
<path d="" fill="#090707" transform="translate(0,0)"/>
<path d="" fill="#0A0708" transform="translate(0,0)"/>
<path d="" fill="#0B0A08" transform="translate(0,0)"/>
<path d="" fill="#060607" transform="translate(0,0)"/>
<path d="" fill="#121413" transform="translate(0,0)"/>
<path d="" fill="#0B0B0A" transform="translate(0,0)"/>
<path d="" fill="#131012" transform="translate(0,0)"/>
<path d="" fill="#060504" transform="translate(0,0)"/>
<path d="" fill="#070907" transform="translate(0,0)"/>
<path d="" fill="#090A07" transform="translate(0,0)"/>
<path d="" fill="#090909" transform="translate(0,0)"/>
<path d="" fill="#0B0806" transform="translate(0,0)"/>
<path d="" fill="#0A0A09" transform="translate(0,0)"/>
<path d="" fill="#080908" transform="translate(0,0)"/>
<path d="" fill="#141414" transform="translate(0,0)"/>
<path d="" fill="#070706" transform="translate(0,0)"/>
<path d="" fill="#0B0B0B" transform="translate(0,0)"/>
<path d="" fill="#0B0C07" transform="translate(0,0)"/>
<path d="" fill="#060808" transform="translate(0,0)"/>
<path d="" fill="#202021" transform="translate(0,0)"/>
</svg>
