<?xml version="1.0" standalone="no"?>
<!DOCTYPE svg PUBLIC "-//W3C//DTD SVG 20010904//EN"
 "http://www.w3.org/TR/2001/REC-SVG-20010904/DTD/svg10.dtd">
<svg version="1.0" xmlns="http://www.w3.org/2000/svg"
 width="512.000000pt" height="512.000000pt" viewBox="0 0 512.000000 512.000000"
 preserveAspectRatio="xMidYMid meet">

<g transform="translate(0.000000,512.000000) scale(0.100000,-0.100000)"
fill="#000000" stroke="none">
<path d="M1186 4398 l-40 -20 30 -13 c16 -6 269 -106 562 -220 454 -178 540
-214 577 -247 50 -44 78 -86 100 -148 l15 -43 -47 44 c-73 68 -152 111 -333
182 -91 36 -353 140 -583 231 l-418 165 -35 -16 c-19 -9 -34 -19 -34 -22 0 -3
267 -111 593 -240 325 -128 616 -247 645 -263 63 -35 152 -105 152 -118 0 -5
-24 0 -52 11 -29 12 -98 38 -153 59 -55 21 -242 93 -415 160 -173 67 -443 171
-600 232 l-284 109 -38 -17 c-21 -10 -35 -20 -31 -24 4 -4 145 -60 313 -125
168 -64 549 -211 847 -326 299 -115 546 -209 549 -209 14 0 -5 158 -25 220
-28 83 -85 166 -142 207 -28 20 -227 103 -529 221 -267 105 -508 199 -535 210
-50 20 -50 20 -89 0z"/>
<path d="M3362 4209 c-293 -114 -552 -222 -576 -238 -96 -66 -164 -202 -173
-348 -3 -46 -3 -83 0 -83 6 0 604 230 1237 475 223 86 419 162 435 167 47 17
48 23 7 42 l-39 17 -259 -99 c-477 -184 -1138 -440 -1191 -461 -29 -11 -53
-17 -53 -12 0 14 70 71 132 108 29 18 240 106 468 196 228 90 499 197 602 238
104 41 188 77 188 80 0 3 -16 13 -35 22 -25 12 -41 14 -57 7 -13 -5 -275 -109
-583 -230 -307 -122 -583 -235 -612 -251 -29 -17 -78 -53 -108 -80 l-54 -50
16 46 c18 54 63 116 113 156 29 23 448 193 1135 459 17 6 15 10 -20 28 l-40
20 -533 -209z"/>
<path d="M550 2781 l0 -1338 208 -81 c114 -44 478 -187 810 -316 332 -130 605
-236 608 -236 2 0 3 601 2 1336 l-3 1337 -720 281 c-396 155 -762 299 -812
318 l-93 37 0 -1338z"/>
<path d="M3755 3801 l-810 -318 -3 -1337 c-1 -735 0 -1336 2 -1336 4 0 732
284 1444 562 l182 72 0 1338 c0 736 -1 1338 -2 1337 -2 0 -367 -143 -813 -318z"/>
<path d="M2553 3413 l-273 -3 0 -1339 c0 -737 3 -1346 6 -1355 5 -14 39 -16
275 -16 l269 0 0 1360 c0 748 -1 1359 -2 1358 -2 -2 -126 -4 -275 -5z"/>
</g>
</svg>
