<?xml version="1.0" standalone="no"?>
<!DOCTYPE svg PUBLIC "-//W3C//DTD SVG 20010904//EN"
 "http://www.w3.org/TR/2001/REC-SVG-20010904/DTD/svg10.dtd">
<svg version="1.0" xmlns="http://www.w3.org/2000/svg"
 width="500.000000pt" height="500.000000pt" viewBox="0 0 500.000000 500.000000"
 preserveAspectRatio="xMidYMid meet">

<g transform="translate(0.000000,500.000000) scale(0.100000,-0.100000)"
fill="#000000" stroke="none">
<path d="M1720 4993 c-453 -46 -859 -239 -1166 -554 -354 -364 -535 -810 -535
-1314 0 -293 57 -546 184 -817 226 -481 697 -869 1212 -997 508 -126 1028 -44
1456 230 42 27 80 49 85 49 5 1 353 -345 774 -769 621 -624 774 -773 815 -792
73 -35 180 -34 256 2 129 61 199 190 178 331 -16 103 -16 104 -818 910 l-763
768 50 77 c142 223 238 489 278 769 19 140 15 405 -9 544 -70 401 -242 735
-527 1021 -299 300 -665 479 -1093 534 -107 14 -285 18 -377 8z m376 -638
c497 -87 892 -476 1001 -985 23 -106 25 -370 4 -475 -37 -187 -119 -366 -254
-554 -78 -108 -89 -119 -207 -203 -266 -187 -474 -258 -760 -258 -148 0 -268
19 -395 61 -346 116 -648 408 -770 747 -58 161 -70 234 -70 437 0 203 12 276
70 437 144 398 522 716 941 792 108 19 330 20 440 1z"/>
</g>
</svg>
