<?xml version="1.0" standalone="no"?>
<!DOCTYPE svg PUBLIC "-//W3C//DTD SVG 20010904//EN"
 "http://www.w3.org/TR/2001/REC-SVG-20010904/DTD/svg10.dtd">
<svg version="1.0" xmlns="http://www.w3.org/2000/svg"
 width="844.000000pt" height="789.000000pt" viewBox="0 0 844.000000 789.000000"
 preserveAspectRatio="xMidYMid meet">

<g transform="translate(0.000000,789.000000) scale(0.100000,-0.100000)"
fill="#000000" stroke="none">
<path d="M7385 7879 c-586 -36 -1246 -130 -1932 -274 -1025 -216 -1811 -508
-2373 -881 -327 -217 -586 -475 -702 -699 -22 -44 -42 -82 -44 -84 -1 -1 -48
13 -103 33 -214 76 -428 97 -584 57 -101 -26 -121 -37 -272 -151 -611 -461
-986 -949 -1200 -1561 -122 -350 -175 -701 -175 -1148 0 -647 140 -1272 401
-1799 l85 -172 -18 -148 c-48 -401 -71 -664 -72 -851 -1 -196 6 -234 33 -175
6 14 41 145 76 290 110 445 181 629 285 736 40 41 67 59 100 68 25 7 109 32
187 56 457 142 792 437 920 809 13 39 40 149 59 245 76 383 181 601 388 805
117 116 223 191 426 300 80 43 287 158 460 255 432 243 633 349 780 413 69 30
154 71 190 92 176 99 360 247 360 287 0 19 -4 20 -57 15 -32 -3 -186 -36 -343
-75 -406 -99 -416 -100 -235 -23 55 24 408 176 785 338 377 162 876 376 1110
475 475 201 615 264 775 351 254 138 455 305 455 378 0 45 -16 43 -426 -60
-219 -55 -400 -99 -401 -98 -1 2 44 22 100 46 315 134 756 374 1002 546 334
233 623 517 791 777 180 279 268 625 198 773 -18 38 -22 39 -204 55 -133 11
-636 11 -825 -1z m-1685 -1204 c0 -49 -367 -278 -1015 -633 -770 -422 -1370
-805 -1860 -1186 -295 -229 -492 -414 -710 -666 -79 -91 -209 -241 -290 -334
-232 -266 -360 -435 -469 -615 -238 -393 -371 -837 -417 -1399 -8 -87 -17
-149 -26 -160 -12 -16 -14 -15 -33 6 -38 45 -45 97 -45 317 1 234 19 386 81
686 67 327 178 574 412 919 326 480 910 1086 1415 1467 526 396 1562 998 2395
1392 418 198 562 251 562 206z"/>
</g>
</svg>
